<svg width="397" height="453" viewBox="0 0 397 453" fill="none" xmlns="http://www.w3.org/2000/svg">
<path d="M366.284 58.5038H185.775C168.811 58.5038 155.059 72.2465 155.059 89.199V277.136C155.059 294.089 168.811 307.832 185.775 307.832H366.284C383.248 307.832 397 294.089 397 277.136V89.199C397 72.2465 383.248 58.5038 366.284 58.5038Z" fill="white"/>
<path d="M227.252 116.251H208.125V135.365H227.252V116.251Z" fill="#20314F"/>
<path d="M239.686 147.791H195.691V103.825H239.686V147.791ZM201.432 142.053H233.962V109.545H201.432V142.053Z" fill="#20314F"/>
<path d="M227.252 230.953H208.125V250.067H227.252V230.953Z" fill="#20314F"/>
<path d="M239.686 262.51H195.691V218.545H239.686V262.51ZM201.432 256.773H233.962V224.265H201.432V256.773Z" fill="#20314F"/>
<path d="M343.952 116.251H324.825V135.365H343.952V116.251Z" fill="#20314F"/>
<path d="M356.386 147.791H312.39V103.825H356.386V147.791ZM318.132 142.053H350.662V109.545H318.132V142.053Z" fill="#20314F"/>
<path d="M202.383 173.611H196.642V211.839H202.383V173.611Z" fill="#20314F"/>
<path d="M208.125 173.611H198.562V186.987H208.125V173.611Z" fill="#20314F"/>
<path d="M355.417 167.873H342.032V185.086H355.417V167.873Z" fill="#20314F"/>
<path d="M355.417 152.578H332.468V160.217H355.417V152.578Z" fill="#20314F"/>
<path d="M338.21 164.054H326.727V171.692H338.21V164.054Z" fill="#20314F"/>
<path d="M340.112 156.397H332.468V171.692H340.112V156.397Z" fill="#20314F"/>
<path d="M326.727 206.101H298.036V211.839H326.727V206.101Z" fill="#20314F"/>
<path d="M326.727 232.871H298.036V238.609H326.727V232.871Z" fill="#20314F"/>
<path d="M303.778 211.839H298.036V238.609H303.778V211.839Z" fill="#20314F"/>
<path d="M326.727 211.839H320.985V238.609H326.727V211.839Z" fill="#20314F"/>
<path d="M317.163 217.577H307.6V227.134H317.163V217.577Z" fill="#20314F"/>
<path d="M292.295 125.808H278.909V135.365H292.295V125.808Z" fill="#20314F"/>
<path d="M294.214 102.875H269.346V112.432H294.214V102.875Z" fill="#20314F"/>
<path d="M278.909 112.432H269.346V120.07H278.909V112.432Z" fill="#20314F"/>
<path d="M294.214 112.432H284.651V120.07H294.214V112.432Z" fill="#20314F"/>
<path d="M307.6 125.808H298.036V135.365H307.6V125.808Z" fill="#20314F"/>
<path d="M215.769 152.578H206.205V162.135H215.769V152.578Z" fill="#20314F"/>
<path d="M229.154 164.054H219.591V173.611H229.154V164.054Z" fill="#20314F"/>
<path d="M229.154 173.611H219.591V183.168H229.154V173.611Z" fill="#20314F"/>
<path d="M229.154 186.987H219.591V196.544H229.154V186.987Z" fill="#20314F"/>
<path d="M229.172 202.282H213.867V211.839H229.172V202.282Z" fill="#20314F"/>
<path d="M244.459 202.282H234.896V211.839H244.459V202.282Z" fill="#20314F"/>
<path d="M267.426 221.396H257.862V230.953H267.426V221.396Z" fill="#20314F"/>
<path d="M273.168 250.067H263.604V259.624H273.168V250.067Z" fill="#20314F"/>
<path d="M313.341 253.904H303.778V263.461H313.341V253.904Z" fill="#20314F"/>
<path d="M343.952 215.658H334.388V232.871H343.952V215.658Z" fill="#20314F"/>
<path d="M340.13 240.51H319.083V250.067H340.13V240.51Z" fill="#20314F"/>
<path d="M355.417 238.609H345.854V253.904H355.417V238.609Z" fill="#20314F"/>
<path d="M355.417 253.904H330.549V263.461H355.417V253.904Z" fill="#20314F"/>
<path d="M298.036 244.347H288.473V253.904H298.036V244.347Z" fill="#20314F"/>
<path d="M254.041 253.904H244.477V263.461H254.041V253.904Z" fill="#20314F"/>
<path d="M298.036 253.904H280.811V263.461H298.036V253.904Z" fill="#20314F"/>
<path d="M282.731 230.953H273.167V240.51H282.731V230.953Z" fill="#20314F"/>
<path d="M292.295 221.396H282.731V240.51H292.295V221.396Z" fill="#20314F"/>
<path d="M273.168 230.953H263.604V246.248H273.168V230.953Z" fill="#20314F"/>
<path d="M257.862 230.953H248.299V250.067H257.862V230.953Z" fill="#20314F"/>
<path d="M298.036 202.282H288.473V211.839H298.036V202.282Z" fill="#20314F"/>
<path d="M349.693 194.643H340.13V204.2H349.693V194.643Z" fill="#20314F"/>
<path d="M355.417 194.643H345.854V211.856H355.417V194.643Z" fill="#20314F"/>
<path d="M336.29 192.725H326.727V211.839H336.29V192.725Z" fill="#20314F"/>
<path d="M271.248 202.282H252.121V211.839H271.248V202.282Z" fill="#20314F"/>
<path d="M284.633 211.839H246.379V221.396H284.633V211.839Z" fill="#20314F"/>
<path d="M215.769 192.725H206.205V211.839H215.769V192.725Z" fill="#20314F"/>
<path d="M244.459 186.987H234.896V196.544H244.459V186.987Z" fill="#20314F"/>
<path d="M307.6 186.987H298.036V196.544H307.6V186.987Z" fill="#20314F"/>
<path d="M317.163 186.987H307.6V196.544H317.163V186.987Z" fill="#20314F"/>
<path d="M317.163 177.43H307.6V186.987H317.163V177.43Z" fill="#20314F"/>
<path d="M326.727 177.43H317.163V186.987H326.727V177.43Z" fill="#20314F"/>
<path d="M294.197 186.987H250.201V196.544H294.197V186.987Z" fill="#20314F"/>
<path d="M254.041 141.103H244.477V150.66H254.041V141.103Z" fill="#20314F"/>
<path d="M280.811 141.103H271.248V150.66H280.811V141.103Z" fill="#20314F"/>
<path d="M280.811 154.479H271.248V164.036H280.811V154.479Z" fill="#20314F"/>
<path d="M307.6 154.479H298.036V179.331H307.6V154.479Z" fill="#20314F"/>
<path d="M294.214 141.103H284.651V150.66H294.214V141.103Z" fill="#20314F"/>
<path d="M294.214 169.774H284.651V179.331H294.214V169.774Z" fill="#20314F"/>
<path d="M320.985 154.479H311.422V164.036H320.985V154.479Z" fill="#20314F"/>
<path d="M307.6 141.103H298.036V150.66H307.6V141.103Z" fill="#20314F"/>
<path d="M267.426 102.875H257.862V112.432H267.426V102.875Z" fill="#20314F"/>
<path d="M254.041 125.808H244.477V135.365H254.041V125.808Z" fill="#20314F"/>
<path d="M267.426 125.808H257.862V148.741H267.426V125.808Z" fill="#20314F"/>
<path d="M254.041 102.875H244.477V121.989H254.041V102.875Z" fill="#20314F"/>
<path d="M267.426 154.479H257.862V175.512H267.426V154.479Z" fill="#20314F"/>
<path d="M250.219 171.692H238.735V181.249H250.219V171.692Z" fill="#20314F"/>
<path d="M248.281 152.578H219.591V162.135H248.281V152.578Z" fill="#20314F"/>
<path d="M241.994 0H66.469C47.6666 0 32.4243 15.232 32.4243 34.0216V418.978C32.4243 437.768 47.6666 453 66.469 453H241.994C260.796 453 276.038 437.768 276.038 418.978V34.0216C276.038 15.232 260.796 0 241.994 0Z" fill="#131D2D"/>
<path d="M238.207 9.73303H70.2556C54.4298 9.73303 41.6003 22.5538 41.6003 38.3689V412.801C41.6003 428.616 54.4298 441.436 70.2556 441.436H238.207C254.033 441.436 266.862 428.616 266.862 412.801V38.3689C266.862 22.5538 254.033 9.73303 238.207 9.73303Z" fill="#813C91"/>
<path opacity="0.51" d="M238.207 9.73303H70.2556C54.4298 9.73303 41.6003 22.5538 41.6003 38.3689V412.801C41.6003 428.616 54.4298 441.436 70.2556 441.436H238.207C254.033 441.436 266.862 428.616 266.862 412.801V38.3689C266.862 22.5538 254.033 9.73303 238.207 9.73303Z" fill="url(#paint0_linear_5_4)"/>
<g filter="url(#filter0_d_5_4)">
<path d="M241.007 84.2533H69.1285C63.584 84.2533 59.0894 88.7449 59.0894 94.2855V272.032C59.0894 277.573 63.584 282.065 69.1285 282.065H241.007C246.552 282.065 251.046 277.573 251.046 272.032V94.2855C251.046 88.7449 246.552 84.2533 241.007 84.2533Z" fill="white"/>
</g>
<path d="M116.365 130.085H101.183V145.256H116.365V130.085Z" fill="#20314F"/>
<path d="M126.228 155.095H91.3201V120.211H126.228V155.095ZM95.8641 150.536H121.666V124.752H95.8641V150.536Z" fill="#20314F"/>
<path d="M116.365 221.079H101.183V236.251H116.365V221.079Z" fill="#20314F"/>
<path d="M126.228 246.107H91.3201V211.223H126.228V246.107ZM95.8641 241.548H121.666V215.764H95.8641V241.548Z" fill="#20314F"/>
<path d="M208.953 130.085H193.771V145.256H208.953V130.085Z" fill="#20314F"/>
<path d="M218.816 155.095H183.908V120.211H218.816V155.095ZM188.452 150.536H214.254V124.752H188.452V150.536Z" fill="#20314F"/>
<path d="M96.639 175.582H92.0774V205.925H96.639V175.582Z" fill="#20314F"/>
<path d="M101.183 175.582H93.592V186.195H101.183V175.582Z" fill="#20314F"/>
<path d="M218.041 171.023H207.421V184.681H218.041V171.023Z" fill="#20314F"/>
<path d="M218.059 158.897H199.847V164.969H218.059V158.897Z" fill="#20314F"/>
<path d="M204.391 167.996H195.286V174.068H204.391V167.996Z" fill="#20314F"/>
<path d="M205.924 161.924H199.847V174.051H205.924V161.924Z" fill="#20314F"/>
<path d="M195.286 201.367H172.513V205.925H195.286V201.367Z" fill="#20314F"/>
<path d="M195.286 222.593H172.513V227.151H195.286V222.593Z" fill="#20314F"/>
<path d="M177.075 205.907H172.513V227.134H177.075V205.907Z" fill="#20314F"/>
<path d="M195.286 205.907H190.724V227.134H195.286V205.907Z" fill="#20314F"/>
<path d="M187.695 210.466H180.104V218.052H187.695V210.466Z" fill="#20314F"/>
<path d="M167.969 137.653H157.349V145.239H167.969V137.653Z" fill="#20314F"/>
<path d="M169.484 119.454H149.758V127.04H169.484V119.454Z" fill="#20314F"/>
<path d="M157.349 127.04H149.758V133.112H157.349V127.04Z" fill="#20314F"/>
<path d="M169.484 127.04H161.893V133.112H169.484V127.04Z" fill="#20314F"/>
<path d="M180.104 137.653H172.513V145.239H180.104V137.653Z" fill="#20314F"/>
<path d="M107.259 158.897H99.6683V166.483H107.259V158.897Z" fill="#20314F"/>
<path d="M117.879 167.996H110.289V175.582H117.879V167.996Z" fill="#20314F"/>
<path d="M117.879 175.582H110.289V183.168H117.879V175.582Z" fill="#20314F"/>
<path d="M117.879 186.195H110.289V193.781H117.879V186.195Z" fill="#20314F"/>
<path d="M117.879 198.339H105.745V205.925H117.879V198.339Z" fill="#20314F"/>
<path d="M130.014 198.339H122.423V205.925H130.014V198.339Z" fill="#20314F"/>
<path d="M148.243 213.493H140.652V221.079H148.243V213.493Z" fill="#20314F"/>
<path d="M152.787 236.251H145.196V243.836H152.787V236.251Z" fill="#20314F"/>
<path d="M184.666 239.278H177.075V246.864H184.666V239.278Z" fill="#20314F"/>
<path d="M208.953 208.952H201.362V222.61H208.953V208.952Z" fill="#20314F"/>
<path d="M205.906 228.665H189.209V236.251H205.906V228.665Z" fill="#20314F"/>
<path d="M218.059 227.151H210.468V239.278H218.059V227.151Z" fill="#20314F"/>
<path d="M218.041 239.278H198.315V246.864H218.041V239.278Z" fill="#20314F"/>
<path d="M172.513 231.692H164.922V239.278H172.513V231.692Z" fill="#20314F"/>
<path d="M137.605 239.278H130.014V246.864H137.605V239.278Z" fill="#20314F"/>
<path d="M172.531 239.278H158.863V246.864H172.531V239.278Z" fill="#20314F"/>
<path d="M160.378 221.079H152.787V228.665H160.378V221.079Z" fill="#20314F"/>
<path d="M167.969 213.493H160.378V228.665H167.969V213.493Z" fill="#20314F"/>
<path d="M152.787 221.079H145.196V233.206H152.787V221.079Z" fill="#20314F"/>
<path d="M140.652 221.079H133.061V236.251H140.652V221.079Z" fill="#20314F"/>
<path d="M172.513 198.339H164.922V205.925H172.513V198.339Z" fill="#20314F"/>
<path d="M213.497 192.267H205.906V199.853H213.497V192.267Z" fill="#20314F"/>
<path d="M218.059 192.267H210.468V205.925H218.059V192.267Z" fill="#20314F"/>
<path d="M202.877 190.754H195.286V205.925H202.877V190.754Z" fill="#20314F"/>
<path d="M151.272 198.339H136.091V205.925H151.272V198.339Z" fill="#20314F"/>
<path d="M161.91 205.907H131.547V213.493H161.91V205.907Z" fill="#20314F"/>
<path d="M107.259 190.754H99.6683V205.925H107.259V190.754Z" fill="#20314F"/>
<path d="M130.014 186.195H122.423V193.781H130.014V186.195Z" fill="#20314F"/>
<path d="M180.104 186.195H172.513V193.781H180.104V186.195Z" fill="#20314F"/>
<path d="M187.695 186.195H180.104V193.781H187.695V186.195Z" fill="#20314F"/>
<path d="M187.695 178.609H180.104V186.195H187.695V178.609Z" fill="#20314F"/>
<path d="M195.286 178.609H187.695V186.195H195.286V178.609Z" fill="#20314F"/>
<path d="M169.484 186.195H134.576V193.781H169.484V186.195Z" fill="#20314F"/>
<path d="M137.605 149.797H130.014V157.383H137.605V149.797Z" fill="#20314F"/>
<path d="M158.863 149.797H151.273V157.383H158.863V149.797Z" fill="#20314F"/>
<path d="M158.863 160.41H151.273V167.996H158.863V160.41Z" fill="#20314F"/>
<path d="M180.104 160.41H172.513V180.123H180.104V160.41Z" fill="#20314F"/>
<path d="M169.484 149.797H161.893V157.383H169.484V149.797Z" fill="#20314F"/>
<path d="M169.484 172.555H161.893V180.14H169.484V172.555Z" fill="#20314F"/>
<path d="M190.742 160.41H183.151V167.996H190.742V160.41Z" fill="#20314F"/>
<path d="M180.104 149.797H172.513V157.383H180.104V149.797Z" fill="#20314F"/>
<path d="M148.243 119.454H140.652V127.04H148.243V119.454Z" fill="#20314F"/>
<path d="M137.605 137.653H130.014V145.239H137.605V137.653Z" fill="#20314F"/>
<path d="M148.243 137.653H140.652V155.852H148.243V137.653Z" fill="#20314F"/>
<path d="M137.605 119.454H130.014V134.626H137.605V119.454Z" fill="#20314F"/>
<path d="M148.243 160.41H140.652V177.096H148.243V160.41Z" fill="#20314F"/>
<path d="M134.576 174.068H125.47V181.654H134.576V174.068Z" fill="#20314F"/>
<path d="M133.061 158.897H110.289V166.483H133.061V158.897Z" fill="#20314F"/>
<path d="M0 148.759H309.026" stroke="#4DD0E1" stroke-width="2" stroke-miterlimit="10"/>
<path d="M268.694 148.354H41.4243V307.708H268.694V148.354Z" fill="url(#paint1_linear_5_4)"/>
<path d="M90.915 5.49133H219.221V6.49456C219.221 20.0997 208.178 31.1352 194.564 31.1352H115.572C101.958 31.1352 90.915 20.0997 90.915 6.49456V5.49133Z" fill="#131D2D"/>
<path d="M228.608 45.7963L227.869 47.0284C226.495 49.3164 224.575 51.2349 222.285 52.6077L221.053 53.3469L222.479 54.2093C224.646 55.5118 226.477 57.2894 227.833 59.4191L229.084 61.3727L229.348 60.7919C230.722 57.7822 232.959 55.2654 235.794 53.5757L236.164 53.3469L234.931 52.6077C232.642 51.2349 230.722 49.3164 229.348 47.0284L228.608 45.7963Z" fill="white"/>
<path d="M80.1362 390.131L79.3965 391.363C78.0227 393.651 76.103 395.57 73.8134 396.943L72.5805 397.682L74.0071 398.544C76.1734 399.847 78.0051 401.624 79.3613 403.754L80.6117 405.708L80.8759 405.127C82.2497 402.117 84.4865 399.6 87.322 397.911L87.6919 397.682L86.459 396.943C84.1694 395.57 82.2497 393.651 80.8759 391.363L80.1362 390.131Z" fill="white"/>
<path d="M231.127 320.539L230.687 321.278C229.859 322.669 228.696 323.83 227.305 324.658L226.565 325.098L227.428 325.626C228.749 326.418 229.859 327.491 230.669 328.794L231.426 329.973L231.585 329.621C232.413 327.808 233.769 326.277 235.495 325.238L235.724 325.098L234.984 324.658C233.593 323.83 232.43 322.669 231.602 321.278L231.162 320.539H231.127Z" fill="white"/>
<path d="M80.8407 56.779L80.4004 57.5182C79.5726 58.9087 78.4102 60.0703 77.0188 60.8975L76.2791 61.3375L77.1421 61.8479C78.463 62.64 79.5726 63.7136 80.3828 65.016L81.1401 66.1952L81.2986 65.8432C82.1264 64.0304 83.4826 62.4992 85.2086 61.4607L85.4375 61.3199L84.6978 60.8799C83.3064 60.0527 82.144 58.8911 81.3162 57.5006L80.8759 56.7614L80.8407 56.779Z" fill="white"/>
<path d="M100.813 345.002C100.762 344.57 100.554 344.235 100.191 343.996C99.8271 343.758 99.3811 343.638 98.8527 343.638C98.4664 343.638 98.1283 343.701 97.8385 343.826C97.5516 343.951 97.3271 344.123 97.1652 344.342C97.0061 344.56 96.9266 344.809 96.9266 345.087C96.9266 345.32 96.982 345.521 97.0928 345.688C97.2064 345.853 97.3513 345.991 97.5274 346.102C97.7036 346.209 97.8882 346.299 98.0814 346.37C98.2746 346.438 98.4521 346.494 98.6141 346.536L99.5004 346.775C99.7277 346.834 99.9806 346.917 100.259 347.022C100.54 347.127 100.809 347.271 101.064 347.452C101.323 347.631 101.536 347.861 101.704 348.143C101.871 348.424 101.955 348.769 101.955 349.178C101.955 349.65 101.831 350.076 101.584 350.457C101.34 350.837 100.982 351.14 100.51 351.364C100.042 351.589 99.472 351.701 98.8016 351.701C98.1766 351.701 97.6354 351.6 97.178 351.398C96.7235 351.197 96.3655 350.915 96.1041 350.555C95.8456 350.194 95.6993 349.775 95.6652 349.298H96.7561C96.7845 349.627 96.8953 349.9 97.0885 350.116C97.2845 350.329 97.5317 350.488 97.83 350.593C98.1311 350.695 98.455 350.746 98.8016 350.746C99.205 350.746 99.5672 350.681 99.8882 350.55C100.209 350.417 100.464 350.232 100.651 349.996C100.839 349.758 100.932 349.479 100.932 349.161C100.932 348.871 100.851 348.636 100.689 348.454C100.527 348.272 100.314 348.124 100.05 348.011C99.786 347.897 99.5004 347.798 99.1936 347.712L98.1198 347.406C97.4379 347.209 96.8982 346.93 96.5004 346.566C96.1027 346.202 95.9039 345.727 95.9039 345.138C95.9039 344.65 96.036 344.224 96.3002 343.86C96.5672 343.494 96.9252 343.209 97.374 343.008C97.8257 342.803 98.33 342.701 98.8868 342.701C99.4493 342.701 99.9493 342.802 100.387 343.004C100.824 343.202 101.171 343.475 101.427 343.822C101.685 344.168 101.821 344.562 101.836 345.002H100.813ZM106.215 351.684C105.602 351.684 105.073 351.539 104.63 351.249C104.187 350.959 103.846 350.56 103.607 350.052C103.369 349.543 103.249 348.962 103.249 348.309C103.249 347.644 103.372 347.057 103.616 346.549C103.863 346.038 104.207 345.638 104.647 345.352C105.09 345.062 105.607 344.917 106.198 344.917C106.658 344.917 107.073 345.002 107.443 345.173C107.812 345.343 108.114 345.582 108.35 345.888C108.586 346.195 108.732 346.553 108.789 346.962H107.783C107.707 346.664 107.536 346.4 107.272 346.17C107.011 345.937 106.658 345.82 106.215 345.82C105.823 345.82 105.479 345.923 105.184 346.127C104.891 346.329 104.663 346.614 104.498 346.984C104.336 347.35 104.255 347.781 104.255 348.275C104.255 348.781 104.335 349.221 104.494 349.596C104.656 349.971 104.883 350.262 105.176 350.469C105.471 350.677 105.818 350.781 106.215 350.781C106.477 350.781 106.714 350.735 106.927 350.644C107.14 350.553 107.32 350.423 107.468 350.252C107.616 350.082 107.721 349.877 107.783 349.638H108.789C108.732 350.025 108.592 350.373 108.367 350.682C108.146 350.989 107.852 351.234 107.485 351.415C107.122 351.594 106.698 351.684 106.215 351.684ZM112.185 351.701C111.771 351.701 111.394 351.623 111.056 351.467C110.718 351.307 110.45 351.079 110.251 350.781C110.052 350.479 109.953 350.116 109.953 349.69C109.953 349.315 110.026 349.011 110.174 348.778C110.322 348.542 110.519 348.357 110.766 348.224C111.014 348.09 111.286 347.991 111.585 347.925C111.886 347.857 112.188 347.803 112.492 347.763C112.89 347.712 113.212 347.674 113.46 347.648C113.71 347.62 113.891 347.573 114.005 347.508C114.122 347.442 114.18 347.329 114.18 347.167V347.133C114.18 346.712 114.065 346.386 113.835 346.153C113.607 345.92 113.262 345.803 112.799 345.803C112.319 345.803 111.943 345.908 111.67 346.119C111.397 346.329 111.205 346.553 111.095 346.792L110.14 346.451C110.31 346.053 110.538 345.744 110.822 345.522C111.109 345.298 111.421 345.141 111.759 345.053C112.1 344.962 112.435 344.917 112.765 344.917C112.975 344.917 113.217 344.942 113.489 344.994C113.765 345.042 114.031 345.143 114.286 345.296C114.545 345.45 114.759 345.681 114.93 345.991C115.1 346.3 115.185 346.715 115.185 347.235V351.548H114.18V350.661H114.129C114.06 350.803 113.947 350.955 113.788 351.117C113.629 351.279 113.417 351.417 113.153 351.531C112.889 351.644 112.566 351.701 112.185 351.701ZM112.339 350.798C112.737 350.798 113.072 350.719 113.345 350.563C113.62 350.407 113.828 350.205 113.967 349.958C114.109 349.711 114.18 349.451 114.18 349.178V348.258C114.137 348.309 114.043 348.356 113.899 348.398C113.756 348.438 113.592 348.474 113.404 348.505C113.22 348.533 113.039 348.559 112.863 348.582C112.69 348.602 112.549 348.619 112.441 348.633C112.18 348.667 111.935 348.722 111.708 348.799C111.484 348.873 111.302 348.985 111.163 349.136C111.026 349.283 110.958 349.485 110.958 349.741C110.958 350.09 111.087 350.354 111.346 350.533C111.607 350.709 111.938 350.798 112.339 350.798ZM118.027 347.61V351.548H117.021V345.002H117.993V346.025H118.078C118.231 345.692 118.464 345.425 118.777 345.224C119.089 345.019 119.493 344.917 119.987 344.917C120.43 344.917 120.818 345.008 121.15 345.19C121.483 345.369 121.741 345.641 121.926 346.008C122.111 346.371 122.203 346.832 122.203 347.388V351.548H121.197V347.457C121.197 346.942 121.064 346.542 120.797 346.255C120.53 345.965 120.163 345.82 119.697 345.82C119.376 345.82 119.089 345.89 118.836 346.029C118.586 346.168 118.389 346.371 118.244 346.638C118.099 346.906 118.027 347.229 118.027 347.61ZM130.722 348.82H131.881L132.853 350.099L133.109 350.44L134.558 352.366H133.399L132.444 351.087L132.205 350.763L130.722 348.82ZM134.916 347.184C134.916 348.104 134.749 348.9 134.417 349.57C134.085 350.241 133.629 350.758 133.049 351.121C132.47 351.485 131.808 351.667 131.063 351.667C130.319 351.667 129.657 351.485 129.078 351.121C128.498 350.758 128.042 350.241 127.71 349.57C127.377 348.9 127.211 348.104 127.211 347.184C127.211 346.263 127.377 345.468 127.71 344.798C128.042 344.127 128.498 343.61 129.078 343.246C129.657 342.883 130.319 342.701 131.063 342.701C131.808 342.701 132.47 342.883 133.049 343.246C133.629 343.61 134.085 344.127 134.417 344.798C134.749 345.468 134.916 346.263 134.916 347.184ZM133.893 347.184C133.893 346.428 133.766 345.79 133.514 345.271C133.264 344.751 132.924 344.357 132.495 344.09C132.069 343.823 131.592 343.69 131.063 343.69C130.535 343.69 130.056 343.823 129.627 344.09C129.201 344.357 128.862 344.751 128.609 345.271C128.359 345.79 128.234 346.428 128.234 347.184C128.234 347.94 128.359 348.577 128.609 349.097C128.862 349.617 129.201 350.011 129.627 350.278C130.056 350.545 130.535 350.678 131.063 350.678C131.592 350.678 132.069 350.545 132.495 350.278C132.924 350.011 133.264 349.617 133.514 349.097C133.766 348.577 133.893 347.94 133.893 347.184ZM136.693 351.548V342.82H139.641C140.323 342.82 140.883 342.937 141.32 343.17C141.758 343.4 142.082 343.717 142.292 344.12C142.502 344.523 142.607 344.982 142.607 345.496C142.607 346.011 142.502 346.467 142.292 346.864C142.082 347.262 141.759 347.575 141.325 347.802C140.89 348.026 140.335 348.138 139.658 348.138H137.272V347.184H139.624C140.09 347.184 140.465 347.116 140.749 346.979C141.036 346.843 141.244 346.65 141.372 346.4C141.502 346.147 141.568 345.846 141.568 345.496C141.568 345.147 141.502 344.842 141.372 344.58C141.241 344.319 141.032 344.117 140.745 343.975C140.458 343.83 140.079 343.758 139.607 343.758H137.749V351.548H136.693ZM140.801 347.627L142.948 351.548H141.721L139.607 347.627H140.801ZM154.766 345.548H153.709C153.647 345.244 153.537 344.977 153.381 344.746C153.228 344.516 153.04 344.323 152.819 344.167C152.6 344.008 152.357 343.888 152.09 343.809C151.823 343.729 151.544 343.69 151.255 343.69C150.726 343.69 150.248 343.823 149.819 344.09C149.392 344.357 149.053 344.751 148.8 345.271C148.55 345.79 148.425 346.428 148.425 347.184C148.425 347.94 148.55 348.577 148.8 349.097C149.053 349.617 149.392 350.011 149.819 350.278C150.248 350.545 150.726 350.678 151.255 350.678C151.544 350.678 151.823 350.638 152.09 350.559C152.357 350.479 152.6 350.361 152.819 350.205C153.04 350.046 153.228 349.852 153.381 349.621C153.537 349.388 153.647 349.121 153.709 348.82H154.766C154.687 349.266 154.542 349.665 154.331 350.018C154.121 350.37 153.86 350.67 153.547 350.917C153.235 351.161 152.884 351.347 152.495 351.475C152.108 351.603 151.695 351.667 151.255 351.667C150.51 351.667 149.848 351.485 149.269 351.121C148.689 350.758 148.233 350.241 147.901 349.57C147.569 348.9 147.402 348.104 147.402 347.184C147.402 346.263 147.569 345.468 147.901 344.798C148.233 344.127 148.689 343.61 149.269 343.246C149.848 342.883 150.51 342.701 151.255 342.701C151.695 342.701 152.108 342.765 152.495 342.893C152.884 343.021 153.235 343.208 153.547 343.455C153.86 343.7 154.121 343.998 154.331 344.35C154.542 344.7 154.687 345.099 154.766 345.548ZM163.837 347.184C163.837 348.104 163.671 348.9 163.339 349.57C163.006 350.241 162.551 350.758 161.971 351.121C161.391 351.485 160.729 351.667 159.985 351.667C159.241 351.667 158.579 351.485 157.999 351.121C157.42 350.758 156.964 350.241 156.631 349.57C156.299 348.9 156.133 348.104 156.133 347.184C156.133 346.263 156.299 345.468 156.631 344.798C156.964 344.127 157.42 343.61 157.999 343.246C158.579 342.883 159.241 342.701 159.985 342.701C160.729 342.701 161.391 342.883 161.971 343.246C162.551 343.61 163.006 344.127 163.339 344.798C163.671 345.468 163.837 346.263 163.837 347.184ZM162.815 347.184C162.815 346.428 162.688 345.79 162.435 345.271C162.185 344.751 161.846 344.357 161.417 344.09C160.991 343.823 160.514 343.69 159.985 343.69C159.457 343.69 158.978 343.823 158.549 344.09C158.123 344.357 157.783 344.751 157.531 345.271C157.281 345.79 157.156 346.428 157.156 347.184C157.156 347.94 157.281 348.577 157.531 349.097C157.783 349.617 158.123 350.011 158.549 350.278C158.978 350.545 159.457 350.678 159.985 350.678C160.514 350.678 160.991 350.545 161.417 350.278C161.846 350.011 162.185 349.617 162.435 349.097C162.688 348.577 162.815 347.94 162.815 347.184ZM168.308 351.548H165.614V342.82H168.427C169.274 342.82 169.998 342.995 170.6 343.344C171.203 343.691 171.664 344.19 171.985 344.84C172.306 345.488 172.467 346.263 172.467 347.167C172.467 348.076 172.305 348.859 171.981 349.515C171.657 350.168 171.185 350.671 170.566 351.023C169.947 351.373 169.194 351.548 168.308 351.548ZM166.671 350.61H168.239C168.961 350.61 169.559 350.471 170.033 350.192C170.508 349.914 170.862 349.518 171.095 349.004C171.328 348.489 171.444 347.877 171.444 347.167C171.444 346.462 171.329 345.856 171.099 345.347C170.869 344.836 170.525 344.444 170.068 344.171C169.61 343.896 169.041 343.758 168.359 343.758H166.671V350.61ZM174.239 351.548V342.82H179.506V343.758H175.296V346.707H179.234V347.644H175.296V350.61H179.575V351.548H174.239Z" fill="white"/>
<path d="M144.897 391.398L153.034 399.53L170.787 381.789" stroke="#4DD0E1" stroke-width="2" stroke-miterlimit="10"/>
<path d="M154.143 415.793C165.787 415.793 175.225 406.36 175.225 394.725C175.225 383.09 165.787 373.657 154.143 373.657C142.5 373.657 133.061 383.09 133.061 394.725C133.061 406.36 142.5 415.793 154.143 415.793Z" stroke="#4DD0E1" stroke-width="2" stroke-miterlimit="10"/>
<defs>
<filter id="filter0_d_5_4" x="58.0894" y="83.2533" width="199.957" height="205.811" filterUnits="userSpaceOnUse" color-interpolation-filters="sRGB">
<feFlood flood-opacity="0" result="BackgroundImageFix"/>
<feColorMatrix in="SourceAlpha" type="matrix" values="0 0 0 0 0 0 0 0 0 0 0 0 0 0 0 0 0 0 127 0" result="hardAlpha"/>
<feOffset dx="3" dy="3"/>
<feGaussianBlur stdDeviation="2"/>
<feColorMatrix type="matrix" values="0 0 0 0 0.117647 0 0 0 0 0.105882 0 0 0 0 0.2 0 0 0 0.35 0"/>
<feBlend mode="normal" in2="BackgroundImageFix" result="effect1_dropShadow_5_4"/>
<feBlend mode="normal" in="SourceGraphic" in2="effect1_dropShadow_5_4" result="shape"/>
</filter>
<linearGradient id="paint0_linear_5_4" x1="37.7961" y1="427.127" x2="270.448" y2="23.8882" gradientUnits="userSpaceOnUse">
<stop stop-color="#E8138D"/>
<stop offset="0.07" stop-color="#E8138D" stop-opacity="0.89"/>
<stop offset="0.26" stop-color="#E8138D" stop-opacity="0.63"/>
<stop offset="0.44" stop-color="#E8138D" stop-opacity="0.4"/>
<stop offset="0.61" stop-color="#E8138D" stop-opacity="0.23"/>
<stop offset="0.77" stop-color="#E8138D" stop-opacity="0.1"/>
<stop offset="0.9" stop-color="#E8138D" stop-opacity="0.03"/>
<stop offset="1" stop-color="#E8138D" stop-opacity="0"/>
</linearGradient>
<linearGradient id="paint1_linear_5_4" x1="155.059" y1="148.354" x2="155.059" y2="307.708" gradientUnits="userSpaceOnUse">
<stop stop-color="#4DD0E1"/>
<stop offset="1" stop-color="#4DD0E1" stop-opacity="0"/>
</linearGradient>
</defs>
</svg>
